<?xml version="1.0" encoding="utf-8"?>
<!-- Generator: Adobe Illustrator 16.0.0, SVG Export Plug-In . SVG Version: 6.00 Build 0)  -->
<!DOCTYPE svg PUBLIC "-//W3C//DTD SVG 1.1//EN" "http://www.w3.org/Graphics/SVG/1.1/DTD/svg11.dtd">
<svg version="1.1" id="Artwork" xmlns="http://www.w3.org/2000/svg" xmlns:xlink="http://www.w3.org/1999/xlink" x="0px" y="0px"
	 width="486px" height="486.703px" viewBox="-55.947 0 486 486.703" enable-background="new -55.947 0 486 486.703"
	 xml:space="preserve">
<path fill="#FFFFFF" d="M347.567,196.549h-9.484v-44.388c0-82.099-65.152-150.681-146.582-152.145c-2.226-0.04-6.672-0.04-8.896,0
	C101.173,1.479,36.023,70.062,36.023,152.161v44.388h-9.485C11.922,196.549,0,211.631,0,230.258V452.89
	c0,18.606,11.922,33.829,26.539,33.829h321.028c14.615,0,26.539-15.223,26.539-33.829V230.258
	C374.106,211.631,362.184,196.549,347.567,196.549z M217.129,341.348v67.271c0,7.702-6.449,14.222-14.158,14.222h-31.834
	c-7.711,0-14.159-6.52-14.159-14.222v-67.271c-7.478-7.361-11.83-17.537-11.83-28.795c0-21.334,16.491-39.666,37.459-40.512
	c2.222-0.09,6.673-0.09,8.896,0c20.968,0.846,37.459,19.178,37.459,40.512C228.959,323.811,224.605,333.986,217.129,341.348z
	 M275.573,196.549H191.5h-8.896H98.533v-44.388c0-48.905,39.744-89.342,88.518-89.342c48.775,0,88.521,40.437,88.521,89.342V196.549
	L275.573,196.549z"/>
</svg>
